<mxfile host="app.diagrams.net" modified="2024-07-05T04:54:52.079Z" agent="Mozilla/5.0 (Windows NT 10.0; Win64; x64) AppleWebKit/537.36 (KHTML, like Gecko) Chrome/126.0.0.0 Safari/537.36 Edg/126.0.0.0" version="24.6.4" etag="EU2hyk3ToARC9e7rP_63" type="github">
  <diagram name="หน้า-1" id="ln72_Lqxp6Ry3XDkMWgP">
    <mxGraphModel>
      <root>
        <mxCell id="0" />
        <mxCell id="1" parent="0" />
      </root>
    </mxGraphModel>
  </diagram>
</mxfile>
